<svg width="24" height="24" viewBox="0 0 24 24" fill="none" xmlns="http://www.w3.org/2000/svg">
<path d="M23.9489 18.5956C23.8811 18.391 23.4492 18.0897 22.6535 17.6923C22.438 17.5671 22.1309 17.3969 21.7335 17.1809C21.3357 16.965 20.9747 16.766 20.651 16.5842C20.3267 16.4024 20.0228 16.2262 19.7389 16.056C19.6936 16.0219 19.5515 15.9227 19.3129 15.7575C19.074 15.5929 18.8726 15.4707 18.7075 15.391C18.5427 15.3117 18.3807 15.2719 18.2216 15.2719C17.9944 15.2719 17.7105 15.4339 17.3697 15.7575C17.0289 16.0816 16.7163 16.4336 16.4323 16.8146C16.1483 17.1954 15.8471 17.5474 15.5292 17.8713C15.2109 18.1953 14.9493 18.3572 14.745 18.3572C14.6424 18.3572 14.5145 18.3286 14.3613 18.2722C14.2081 18.2154 14.0915 18.1667 14.0115 18.1275C13.9322 18.0875 13.7962 18.0082 13.6028 17.8885C13.4092 17.7691 13.3015 17.7037 13.2788 17.6923C11.7219 16.8285 10.3868 15.8399 9.27296 14.7266C8.15951 13.6127 7.17067 12.2777 6.30703 10.7208C6.29569 10.6981 6.23019 10.5901 6.11096 10.397C5.99155 10.2037 5.91196 10.0675 5.8722 9.98779C5.83244 9.90832 5.78413 9.79179 5.72741 9.63841C5.67069 9.48504 5.64221 9.35728 5.64221 9.25489C5.64221 9.05047 5.80419 8.78898 6.1281 8.47077C6.45194 8.15274 6.80432 7.85148 7.18488 7.5676C7.56574 7.28372 7.91776 6.97112 8.24173 6.63034C8.56557 6.28939 8.72749 6.00545 8.72749 5.77822C8.72749 5.61924 8.68772 5.45715 8.60826 5.29243C8.52873 5.12736 8.40657 4.92592 8.24173 4.68718C8.07682 4.44855 7.97741 4.30664 7.94326 4.26097C7.77298 3.97708 7.59703 3.67314 7.41499 3.34926C7.23294 3.02544 7.03424 2.66448 6.81823 2.26681C6.6024 1.86932 6.43206 1.56239 6.30691 1.34651C5.9094 0.551225 5.6083 0.119224 5.40369 0.0512837C5.3241 0.0171941 5.20469 0 5.04576 0C4.73875 0 4.33825 0.0567166 3.84395 0.170508C3.34947 0.28412 2.96037 0.403285 2.67623 0.528479C2.10802 0.766987 1.50577 1.46012 0.86931 2.60765C0.28975 3.67559 0 4.73261 0 5.77793C0 6.08449 0.0198819 6.38276 0.0596456 6.67279C0.0994094 6.96252 0.170459 7.28927 0.272853 7.65297C0.375069 8.01656 0.457522 8.28665 0.519854 8.46253C0.582246 8.63853 0.698732 8.95381 0.86925 9.4085C1.03953 9.86307 1.14192 10.1413 1.17602 10.2436C1.57371 11.3573 2.04533 12.3515 2.59073 13.2265C3.48811 14.681 4.71272 16.1841 6.26387 17.7353C7.81507 19.2863 9.31797 20.5108 10.7726 21.4085C11.6476 21.9538 12.6422 22.4253 13.7558 22.8233C13.8581 22.8572 14.1364 22.9593 14.5909 23.1302C15.0454 23.3006 15.3609 23.4171 15.5369 23.4796C15.713 23.5421 15.9831 23.6247 16.3464 23.727C16.7105 23.8294 17.037 23.9005 17.3267 23.9405C17.6167 23.9798 17.915 24 18.2217 24C19.267 24 20.3241 23.7101 21.3923 23.1306C22.5398 22.4944 23.2328 21.8921 23.4714 21.3235C23.5969 21.0397 23.7158 20.6505 23.8294 20.1561C23.9434 19.6618 24 19.2614 24 18.9545C24.0004 18.7949 23.9832 18.6758 23.9489 18.5956Z" fill="#006633"/>
</svg>
