<svg width="19" height="24" viewBox="0 0 19 24" fill="none" xmlns="http://www.w3.org/2000/svg">
<path fill-rule="evenodd" clip-rule="evenodd" d="M1.5 10.148C1.5 7.19816 2.51286 5.05029 3.97427 3.639C5.44472 2.21897 7.41535 1.49999 9.40045 1.5C11.3856 1.50001 13.3562 2.21899 14.8266 3.63902C16.288 5.05032 17.3009 7.19819 17.3009 10.148C17.3009 15.2331 13.5148 19.4163 10.9783 21.6322C10.0574 22.4368 8.74396 22.4368 7.82301 21.6323C5.2864 19.4163 1.5 15.2331 1.5 10.148ZM18.8009 10.148C18.8009 6.83256 17.6512 4.28142 15.8686 2.56002C14.0952 0.847369 11.7406 6.25852e-06 9.40045 0C7.06033 -6.19885e-06 4.70574 0.847345 2.93227 2.56C1.14975 4.28139 0 6.83254 0 10.148C0 15.9352 4.25438 20.5065 6.83615 22.7619C8.32236 24.0603 10.479 24.0603 11.9652 22.7619C14.5468 20.5064 18.8009 15.9351 18.8009 10.148ZM7.268 9.40045C7.268 8.22216 8.2232 7.26697 9.40149 7.26697C10.5798 7.26697 11.535 8.22216 11.535 9.40045C11.535 10.5787 10.5798 11.5339 9.40149 11.5339C8.2232 11.5339 7.268 10.5787 7.268 9.40045ZM9.40149 5.76697C7.39477 5.76697 5.768 7.39373 5.768 9.40045C5.768 11.4072 7.39477 13.0339 9.40149 13.0339C11.4082 13.0339 13.035 11.4072 13.035 9.40045C13.035 7.39373 11.4082 5.76697 9.40149 5.76697Z" fill="white"/>
</svg>
