<svg width="23" height="24" viewBox="0 0 23 24" fill="none" xmlns="http://www.w3.org/2000/svg">
<path d="M17.1506 23.7601C16.9786 23.7601 16.8056 23.7541 16.6296 23.7431C15.6576 23.6841 14.2396 23.4721 13.0036 22.7951C7.27858 19.6661 3.13958 15.1511 0.70158 9.37612C-0.37442 6.82512 -0.21042 4.43012 1.17758 2.44912C1.87058 1.46112 2.98858 0.725123 3.76758 0.260123C4.71658 -0.302877 5.56658 0.0551229 6.10658 1.26512C6.65258 2.48912 7.20858 3.55812 7.80458 4.53412C9.01358 6.51312 8.74558 7.77612 6.85158 9.03612C6.59858 9.20312 6.33458 9.35512 6.02258 9.53312L5.88358 9.61312C7.21158 13.5641 9.65958 16.2301 13.3536 17.7451C13.4326 17.6411 13.5096 17.5391 13.5856 17.4371C13.9146 16.9991 14.2256 16.5831 14.5986 16.2041C15.7476 15.0371 16.7546 14.9291 18.2156 15.8971C19.3006 16.6181 20.4456 17.2991 21.5536 17.9581L21.9926 18.2201C22.5396 18.5461 23.3336 19.3071 22.5096 20.7411C21.3756 22.7161 19.5236 23.7591 17.1506 23.7601ZM4.61258 0.999123C4.52558 0.999123 4.41058 1.04012 4.27958 1.11812C3.57958 1.53712 2.57958 2.19112 1.99558 3.02312C0.50558 5.15112 0.97058 7.44112 1.62358 8.98712C3.97158 14.5491 7.96158 18.8991 13.4846 21.9181C14.3226 22.3771 15.4616 22.6701 16.6906 22.7451C18.9226 22.8841 20.6116 22.0381 21.6416 20.2431C22.0256 19.5741 21.8816 19.3181 21.4806 19.0791L21.0426 18.8171C19.9246 18.1521 18.7686 17.4641 17.6626 16.7311C17.1786 16.4101 16.8036 16.2601 16.4796 16.2601C16.2506 16.2601 15.8796 16.3261 15.3106 16.9051C14.9846 17.2371 14.6936 17.6261 14.3846 18.0371C14.2326 18.2401 14.0756 18.4481 13.9086 18.6591C13.7736 18.8301 13.5456 18.8941 13.3386 18.8151C9.02858 17.1651 6.23758 14.1271 4.80458 9.53112C4.73558 9.31012 4.82858 9.07012 5.02958 8.95212L5.52558 8.66512C5.81658 8.49912 6.06258 8.36012 6.29658 8.20312C7.75258 7.23412 7.88658 6.58812 6.95058 5.05512C6.33158 4.04212 5.75658 2.93612 5.19158 1.67312C5.05558 1.36512 4.84358 0.999123 4.61258 0.999123Z" fill="white"/>
</svg>
