<svg width="25" height="24" viewBox="0 0 25 24" fill="none" xmlns="http://www.w3.org/2000/svg">
<g opacity="0.8">
<path fill-rule="evenodd" clip-rule="evenodd" d="M4.125 11C4.125 7.17209 7.36938 4 11.4583 4C15.5473 4 18.7917 7.17209 18.7917 11C18.7917 14.8279 15.5473 18 11.4583 18C7.36938 18 4.125 14.8279 4.125 11ZM11.4583 2C6.34254 2 2.125 5.99136 2.125 11C2.125 16.0086 6.34254 20 11.4583 20C13.6667 20 15.7077 19.2562 17.3143 18.0079L20.1408 20.7214C20.5392 21.1039 21.1722 21.0909 21.5547 20.6925C21.9372 20.2941 21.9243 19.6611 21.5259 19.2786L18.7528 16.6165C20.0266 15.0821 20.7917 13.1333 20.7917 11C20.7917 5.99136 16.5741 2 11.4583 2Z" fill="#006633"/>
</g>
</svg>
