<svg width="25" height="25" viewBox="0 0 25 25" fill="none" xmlns="http://www.w3.org/2000/svg">
<path fill-rule="evenodd" clip-rule="evenodd" d="M0 12.5C0 5.60795 5.60795 0 12.5 0C19.392 0 25 5.60795 25 12.5C25 19.3921 19.392 25 12.5 25C5.60795 25 0 19.3921 0 12.5ZM1.92291 12.5C1.92291 18.3325 6.6678 23.0771 12.5 23.0771C18.3322 23.0771 23.0771 18.3322 23.0771 12.5C23.0771 6.66779 18.3322 1.92291 12.5 1.92291C6.6678 1.92291 1.92291 6.6675 1.92291 12.5Z" fill="white"/>
<path fill-rule="evenodd" clip-rule="evenodd" d="M13.4447 12.0803L13.4178 12.252L17.0694 15.5254C17.4648 15.8798 17.498 16.4873 17.1436 16.8828C16.9536 17.0946 16.6913 17.2025 16.4269 17.2025C16.1981 17.2025 15.9691 17.1217 15.7857 16.9571L11.8204 13.4025C11.7819 13.3679 11.7293 13.2862 11.6804 13.137C11.6338 12.9948 11.6011 12.8245 11.579 12.6509C11.5372 12.3219 11.5379 12.0177 11.5381 11.9408L11.5381 11.9305V6.34188C11.5381 5.81096 11.9687 5.38042 12.4996 5.38042C13.0305 5.38042 13.461 5.81096 13.461 6.34188V11.9305C13.461 11.9704 13.4553 12.0126 13.4447 12.0803Z" fill="white"/>
</svg>
